<svg width="108" height="152" viewBox="0 0 108 152" fill="none" xmlns="http://www.w3.org/2000/svg">
<path d="M79.2068 62.5123L83.0847 52.3054L84.1424 46.4729V39.1823L83.0847 31.8916L80.9695 26.0591L77.7966 20.5911L73.5661 15.4877L67.5729 10.3842L61.5797 7.10345L55.939 5.28079L49.5932 4.18719H42.8949L37.6068 5.28079L31.6136 7.83251L26.3254 11.4778L21.7424 15.4877L15.3966 23.5074V7.83251L2 7.10345V2H58.7593L66.5153 3.0936L72.1559 4.18719L77.7966 6.00985L83.0847 7.83251L88.7254 11.4778L93.3085 15.4877L96.1288 20.5911L98.2441 26.7882L99.3017 34.0788V39.1823L98.2441 43.5567L96.1288 48.2956L92.9559 52.3054C92.8979 52.3788 92.766 52.5144 92.5746 52.6997L89.078 56.3153L84.8475 59.5961L79.2068 62.5123Z" fill="white"/>
<path d="M58.7593 13.3005H54.5288L51.0034 14.3941L47.478 15.4877L42.8949 19.133L40.4271 22.0493L37.6068 26.7882L36.9017 30.069V36.266L37.6068 41.3695L40.4271 46.4729L48.8881 52.3054L62.2847 59.5961L82.0271 69.803L87.6678 72.7192L90.4881 74.9064L94.3661 78.1872L98.2441 83.2906L101.417 88.0296L103.885 94.2266L105.295 99.6946L106 104.069V113.547L104.59 120.473L101.417 127.399L98.2441 132.867L91.8983 139.064L84.8475 143.803L77.0915 147.084L69.6881 148.906L58.4068 150H8.34576V144.532L15.3966 143.803V70.8966L18.2169 74.9064L22.4475 79.6453L28.4407 85.1133L35.4915 89.8522L40.7797 93.133V143.074H64.0475L72.1559 140.522L77.7966 135.783L81.322 129.951L83.0847 122.66L82.0271 114.276L80.2644 109.901L76.0339 105.163L69.3356 100.424L62.2847 96.7783L50.2983 90.9458L43.2475 87.665L36.9017 83.6552L32.6712 80.3744L27.7356 76.3645L22.4475 70.1675L18.2169 63.9704L16.1017 57.0443L15.3966 52.3054V45.7438L16.1017 38.4532L18.922 30.069L22.4475 23.5074L27.3831 18.0394L33.0237 14.3941L39.722 11.4778L44.3051 10.3842H50.2983L58.7593 13.3005Z" fill="white"/>
<path d="M92.9559 52.3054L96.1288 48.2956L98.2441 43.5567L99.3017 39.1823V34.0788L98.2441 26.7882L96.1288 20.5911L93.3085 15.4877L88.7254 11.4778L83.0847 7.83251L77.7966 6.00985L72.1559 4.18719L66.5153 3.0936L58.7593 2H2V7.10345L15.3966 7.83251V23.5074L21.7424 15.4877L26.3254 11.4778L31.6136 7.83251L37.6068 5.28079L42.8949 4.18719H49.5932L55.939 5.28079L61.5797 7.10345L67.5729 10.3842L73.5661 15.4877L77.7966 20.5911L80.9695 26.0591L83.0847 31.8916L84.1424 39.1823V46.4729L83.0847 52.3054L79.2068 62.5123L84.8475 59.5961M92.9559 52.3054L89.078 56.3153L84.8475 59.5961M92.9559 52.3054C92.4944 52.8887 87.358 57.4089 84.8475 59.5961M50.2983 90.9458L62.2847 96.7783L69.3356 100.424L76.0339 105.163L80.2644 109.901L82.0271 114.276L83.0847 122.66L81.322 129.951L77.7966 135.783L72.1559 140.522L64.0475 143.074H40.7797V93.133L35.4915 89.8522L28.4407 85.1133L22.4475 79.6453L18.2169 74.9064L15.3966 70.8966V143.803L8.34576 144.532V150H58.4068L69.6881 148.906L77.0915 147.084L84.8475 143.803L91.8983 139.064L98.2441 132.867L101.417 127.399L104.59 120.473L106 113.547V104.069L105.295 99.6946L103.885 94.2266L101.417 88.0296L98.2441 83.2906L94.3661 78.1872L90.4881 74.9064L87.6678 72.7192L82.0271 69.803L62.2847 59.5961L48.8881 52.3054L40.4271 46.4729L37.6068 41.3695L36.9017 36.266V30.069L37.6068 26.7882L40.4271 22.0493L42.8949 19.133L47.478 15.4877L51.0034 14.3941L54.5288 13.3005H58.7593L50.2983 10.3842H44.3051L39.722 11.4778L33.0237 14.3941L27.3831 18.0394L22.4475 23.5074L18.922 30.069L16.1017 38.4532L15.3966 45.7438V52.3054L16.1017 57.0443L18.2169 63.9704L22.4475 70.1675L27.7356 76.3645L32.6712 80.3744L36.9017 83.6552M50.2983 90.9458L43.2475 87.665L36.9017 83.6552M50.2983 90.9458L36.9017 83.6552" stroke="black" stroke-width="3"/>
</svg>
